<mxfile host="app.diagrams.net" modified="2023-10-04T02:09:40.046Z" agent="Mozilla/5.0 (Windows NT 10.0; Win64; x64) AppleWebKit/537.36 (KHTML, like Gecko) Chrome/117.0.0.0 Safari/537.36" etag="SELR37l4D9AeM3ZXppFS" version="22.0.1" type="device">
  <diagram name="Page-1" id="e5We7iK-NQeTNHWYRJSV">
    <mxGraphModel dx="954" dy="604" grid="1" gridSize="10" guides="1" tooltips="1" connect="1" arrows="1" fold="1" page="1" pageScale="1" pageWidth="850" pageHeight="1100" math="0" shadow="0">
      <root>
        <mxCell id="0" />
        <mxCell id="1" parent="0" />
        <mxCell id="qKxfiSMIqMXk9HzxjfAy-1" value="START" style="strokeWidth=2;html=1;shape=mxgraph.flowchart.start_1;whiteSpace=wrap;" vertex="1" parent="1">
          <mxGeometry x="400" y="100" width="100" height="60" as="geometry" />
        </mxCell>
        <mxCell id="qKxfiSMIqMXk9HzxjfAy-3" value="" style="endArrow=classic;html=1;rounded=0;exitX=0.5;exitY=1;exitDx=0;exitDy=0;exitPerimeter=0;" edge="1" parent="1" source="qKxfiSMIqMXk9HzxjfAy-1">
          <mxGeometry width="50" height="50" relative="1" as="geometry">
            <mxPoint x="455" y="160" as="sourcePoint" />
            <mxPoint x="450" y="230" as="targetPoint" />
          </mxGeometry>
        </mxCell>
        <mxCell id="qKxfiSMIqMXk9HzxjfAy-4" value="ANGKA" style="shape=parallelogram;perimeter=parallelogramPerimeter;whiteSpace=wrap;html=1;fixedSize=1;" vertex="1" parent="1">
          <mxGeometry x="390" y="230" width="120" height="60" as="geometry" />
        </mxCell>
        <mxCell id="qKxfiSMIqMXk9HzxjfAy-29" style="edgeStyle=orthogonalEdgeStyle;rounded=0;orthogonalLoop=1;jettySize=auto;html=1;exitX=0.5;exitY=1;exitDx=0;exitDy=0;entryX=0.5;entryY=0;entryDx=0;entryDy=0;" edge="1" parent="1" source="qKxfiSMIqMXk9HzxjfAy-5" target="qKxfiSMIqMXk9HzxjfAy-28">
          <mxGeometry relative="1" as="geometry" />
        </mxCell>
        <mxCell id="qKxfiSMIqMXk9HzxjfAy-5" value="TEBAKAN" style="shape=parallelogram;perimeter=parallelogramPerimeter;whiteSpace=wrap;html=1;fixedSize=1;" vertex="1" parent="1">
          <mxGeometry x="370" y="330" width="120" height="60" as="geometry" />
        </mxCell>
        <mxCell id="qKxfiSMIqMXk9HzxjfAy-6" value="" style="endArrow=classic;html=1;rounded=0;" edge="1" parent="1" source="qKxfiSMIqMXk9HzxjfAy-4">
          <mxGeometry width="50" height="50" relative="1" as="geometry">
            <mxPoint x="440" y="300" as="sourcePoint" />
            <mxPoint x="440" y="330" as="targetPoint" />
          </mxGeometry>
        </mxCell>
        <mxCell id="qKxfiSMIqMXk9HzxjfAy-31" value="" style="edgeStyle=orthogonalEdgeStyle;rounded=0;orthogonalLoop=1;jettySize=auto;html=1;" edge="1" parent="1" source="qKxfiSMIqMXk9HzxjfAy-7" target="qKxfiSMIqMXk9HzxjfAy-10">
          <mxGeometry relative="1" as="geometry" />
        </mxCell>
        <mxCell id="qKxfiSMIqMXk9HzxjfAy-7" value="ANGKA = TEBAKAN" style="rhombus;whiteSpace=wrap;html=1;" vertex="1" parent="1">
          <mxGeometry x="390" y="510" width="100" height="100" as="geometry" />
        </mxCell>
        <mxCell id="qKxfiSMIqMXk9HzxjfAy-8" value="ANGKA&amp;lt;TEBAKAN" style="rhombus;whiteSpace=wrap;html=1;" vertex="1" parent="1">
          <mxGeometry x="380" y="690" width="120" height="110" as="geometry" />
        </mxCell>
        <mxCell id="qKxfiSMIqMXk9HzxjfAy-39" style="edgeStyle=orthogonalEdgeStyle;rounded=0;orthogonalLoop=1;jettySize=auto;html=1;exitX=0.5;exitY=1;exitDx=0;exitDy=0;entryX=0.25;entryY=1;entryDx=0;entryDy=0;" edge="1" parent="1" source="qKxfiSMIqMXk9HzxjfAy-9" target="qKxfiSMIqMXk9HzxjfAy-10">
          <mxGeometry relative="1" as="geometry" />
        </mxCell>
        <mxCell id="qKxfiSMIqMXk9HzxjfAy-40" value="NO" style="edgeLabel;html=1;align=center;verticalAlign=middle;resizable=0;points=[];" vertex="1" connectable="0" parent="qKxfiSMIqMXk9HzxjfAy-39">
          <mxGeometry x="-0.5405" y="2" relative="1" as="geometry">
            <mxPoint as="offset" />
          </mxGeometry>
        </mxCell>
        <mxCell id="qKxfiSMIqMXk9HzxjfAy-9" value="ANGKA&amp;gt;TEBAKAN" style="rhombus;whiteSpace=wrap;html=1;" vertex="1" parent="1">
          <mxGeometry x="380" y="850" width="110" height="110" as="geometry" />
        </mxCell>
        <mxCell id="qKxfiSMIqMXk9HzxjfAy-10" value="BENAR" style="shape=parallelogram;perimeter=parallelogramPerimeter;whiteSpace=wrap;html=1;fixedSize=1;" vertex="1" parent="1">
          <mxGeometry x="210" y="530" width="120" height="60" as="geometry" />
        </mxCell>
        <mxCell id="qKxfiSMIqMXk9HzxjfAy-35" style="edgeStyle=orthogonalEdgeStyle;rounded=0;orthogonalLoop=1;jettySize=auto;html=1;exitX=0.5;exitY=0;exitDx=0;exitDy=0;entryX=1;entryY=0.75;entryDx=0;entryDy=0;" edge="1" parent="1" source="qKxfiSMIqMXk9HzxjfAy-11" target="qKxfiSMIqMXk9HzxjfAy-5">
          <mxGeometry relative="1" as="geometry">
            <Array as="points">
              <mxPoint x="630" y="715" />
              <mxPoint x="630" y="372" />
            </Array>
          </mxGeometry>
        </mxCell>
        <mxCell id="qKxfiSMIqMXk9HzxjfAy-11" value="ANGKA SAYA&amp;nbsp; LEBIH KECIL" style="shape=parallelogram;perimeter=parallelogramPerimeter;whiteSpace=wrap;html=1;fixedSize=1;" vertex="1" parent="1">
          <mxGeometry x="580" y="700" width="150" height="60" as="geometry" />
        </mxCell>
        <mxCell id="qKxfiSMIqMXk9HzxjfAy-38" style="edgeStyle=orthogonalEdgeStyle;rounded=0;orthogonalLoop=1;jettySize=auto;html=1;exitX=1;exitY=0.5;exitDx=0;exitDy=0;entryX=1;entryY=0.75;entryDx=0;entryDy=0;" edge="1" parent="1" source="qKxfiSMIqMXk9HzxjfAy-12" target="qKxfiSMIqMXk9HzxjfAy-5">
          <mxGeometry relative="1" as="geometry">
            <Array as="points">
              <mxPoint x="790" y="890" />
              <mxPoint x="790" y="372" />
            </Array>
          </mxGeometry>
        </mxCell>
        <mxCell id="qKxfiSMIqMXk9HzxjfAy-12" value="ANGKA&amp;nbsp; SAYA LEBIH BESAR" style="shape=parallelogram;perimeter=parallelogramPerimeter;whiteSpace=wrap;html=1;fixedSize=1;" vertex="1" parent="1">
          <mxGeometry x="570" y="860" width="150" height="60" as="geometry" />
        </mxCell>
        <mxCell id="qKxfiSMIqMXk9HzxjfAy-13" value="" style="endArrow=classic;html=1;rounded=0;entryX=0;entryY=0.75;entryDx=0;entryDy=0;exitX=1;exitY=0.5;exitDx=0;exitDy=0;" edge="1" parent="1" source="qKxfiSMIqMXk9HzxjfAy-8" target="qKxfiSMIqMXk9HzxjfAy-11">
          <mxGeometry width="50" height="50" relative="1" as="geometry">
            <mxPoint x="460" y="755" as="sourcePoint" />
            <mxPoint x="510" y="705" as="targetPoint" />
          </mxGeometry>
        </mxCell>
        <mxCell id="qKxfiSMIqMXk9HzxjfAy-34" value="YES" style="edgeLabel;html=1;align=center;verticalAlign=middle;resizable=0;points=[];" vertex="1" connectable="0" parent="qKxfiSMIqMXk9HzxjfAy-13">
          <mxGeometry x="-0.4583" relative="1" as="geometry">
            <mxPoint as="offset" />
          </mxGeometry>
        </mxCell>
        <mxCell id="qKxfiSMIqMXk9HzxjfAy-14" value="" style="endArrow=classic;html=1;rounded=0;entryX=0;entryY=0.75;entryDx=0;entryDy=0;exitX=1;exitY=0.5;exitDx=0;exitDy=0;" edge="1" parent="1" source="qKxfiSMIqMXk9HzxjfAy-9" target="qKxfiSMIqMXk9HzxjfAy-12">
          <mxGeometry width="50" height="50" relative="1" as="geometry">
            <mxPoint x="470" y="910" as="sourcePoint" />
            <mxPoint x="510" y="860" as="targetPoint" />
          </mxGeometry>
        </mxCell>
        <mxCell id="qKxfiSMIqMXk9HzxjfAy-37" value="YES" style="edgeLabel;html=1;align=center;verticalAlign=middle;resizable=0;points=[];" vertex="1" connectable="0" parent="qKxfiSMIqMXk9HzxjfAy-14">
          <mxGeometry x="0.0774" y="-2" relative="1" as="geometry">
            <mxPoint as="offset" />
          </mxGeometry>
        </mxCell>
        <mxCell id="qKxfiSMIqMXk9HzxjfAy-18" value="END" style="ellipse;whiteSpace=wrap;html=1;" vertex="1" parent="1">
          <mxGeometry x="30" y="670" width="110" height="80" as="geometry" />
        </mxCell>
        <mxCell id="qKxfiSMIqMXk9HzxjfAy-19" value="" style="endArrow=classic;html=1;rounded=0;entryX=0.573;entryY=0.025;entryDx=0;entryDy=0;entryPerimeter=0;exitX=0;exitY=0.5;exitDx=0;exitDy=0;" edge="1" parent="1" source="qKxfiSMIqMXk9HzxjfAy-10" target="qKxfiSMIqMXk9HzxjfAy-18">
          <mxGeometry width="50" height="50" relative="1" as="geometry">
            <mxPoint x="260" y="590" as="sourcePoint" />
            <mxPoint x="310" y="540" as="targetPoint" />
            <Array as="points">
              <mxPoint x="93" y="560" />
            </Array>
          </mxGeometry>
        </mxCell>
        <mxCell id="qKxfiSMIqMXk9HzxjfAy-21" value="" style="endArrow=classic;html=1;rounded=0;entryX=1;entryY=0.5;entryDx=0;entryDy=0;" edge="1" parent="1" target="qKxfiSMIqMXk9HzxjfAy-10">
          <mxGeometry width="50" height="50" relative="1" as="geometry">
            <mxPoint x="390" y="560" as="sourcePoint" />
            <mxPoint x="440" y="510" as="targetPoint" />
            <Array as="points" />
          </mxGeometry>
        </mxCell>
        <mxCell id="qKxfiSMIqMXk9HzxjfAy-32" value="YES" style="edgeLabel;html=1;align=center;verticalAlign=middle;resizable=0;points=[];" vertex="1" connectable="0" parent="qKxfiSMIqMXk9HzxjfAy-21">
          <mxGeometry x="-0.2286" y="2" relative="1" as="geometry">
            <mxPoint as="offset" />
          </mxGeometry>
        </mxCell>
        <mxCell id="qKxfiSMIqMXk9HzxjfAy-22" value="" style="endArrow=classic;html=1;rounded=0;exitX=0.5;exitY=1;exitDx=0;exitDy=0;entryX=0.5;entryY=0;entryDx=0;entryDy=0;" edge="1" parent="1" source="qKxfiSMIqMXk9HzxjfAy-7" target="qKxfiSMIqMXk9HzxjfAy-8">
          <mxGeometry width="50" height="50" relative="1" as="geometry">
            <mxPoint x="440" y="640" as="sourcePoint" />
            <mxPoint x="490" y="590" as="targetPoint" />
          </mxGeometry>
        </mxCell>
        <mxCell id="qKxfiSMIqMXk9HzxjfAy-33" value="NO" style="edgeLabel;html=1;align=center;verticalAlign=middle;resizable=0;points=[];" vertex="1" connectable="0" parent="qKxfiSMIqMXk9HzxjfAy-22">
          <mxGeometry x="-0.2" y="-1" relative="1" as="geometry">
            <mxPoint as="offset" />
          </mxGeometry>
        </mxCell>
        <mxCell id="qKxfiSMIqMXk9HzxjfAy-23" value="" style="endArrow=classic;html=1;rounded=0;exitX=0.45;exitY=1;exitDx=0;exitDy=0;exitPerimeter=0;entryX=0.5;entryY=0;entryDx=0;entryDy=0;" edge="1" parent="1" source="qKxfiSMIqMXk9HzxjfAy-8" target="qKxfiSMIqMXk9HzxjfAy-9">
          <mxGeometry width="50" height="50" relative="1" as="geometry">
            <mxPoint x="390" y="750" as="sourcePoint" />
            <mxPoint x="350" y="830" as="targetPoint" />
          </mxGeometry>
        </mxCell>
        <mxCell id="qKxfiSMIqMXk9HzxjfAy-36" value="NO" style="edgeLabel;html=1;align=center;verticalAlign=middle;resizable=0;points=[];" vertex="1" connectable="0" parent="qKxfiSMIqMXk9HzxjfAy-23">
          <mxGeometry x="-0.1595" y="1" relative="1" as="geometry">
            <mxPoint as="offset" />
          </mxGeometry>
        </mxCell>
        <mxCell id="qKxfiSMIqMXk9HzxjfAy-24" style="edgeStyle=orthogonalEdgeStyle;rounded=0;orthogonalLoop=1;jettySize=auto;html=1;exitX=0.5;exitY=1;exitDx=0;exitDy=0;" edge="1" parent="1" source="qKxfiSMIqMXk9HzxjfAy-18" target="qKxfiSMIqMXk9HzxjfAy-18">
          <mxGeometry relative="1" as="geometry" />
        </mxCell>
        <mxCell id="qKxfiSMIqMXk9HzxjfAy-30" style="edgeStyle=orthogonalEdgeStyle;rounded=0;orthogonalLoop=1;jettySize=auto;html=1;exitX=0.5;exitY=1;exitDx=0;exitDy=0;entryX=0.5;entryY=0;entryDx=0;entryDy=0;" edge="1" parent="1" source="qKxfiSMIqMXk9HzxjfAy-28" target="qKxfiSMIqMXk9HzxjfAy-7">
          <mxGeometry relative="1" as="geometry" />
        </mxCell>
        <mxCell id="qKxfiSMIqMXk9HzxjfAy-28" value="PROSES PENEBAKAN ANGKA" style="rounded=0;whiteSpace=wrap;html=1;" vertex="1" parent="1">
          <mxGeometry x="370" y="430" width="120" height="60" as="geometry" />
        </mxCell>
      </root>
    </mxGraphModel>
  </diagram>
</mxfile>
